<?xml version="1.0" encoding="UTF-8"?>
<svg xmlns="http://www.w3.org/2000/svg" xmlns:xlink="http://www.w3.org/1999/xlink" width="342px" height="200px" viewBox="0 0 342 200" version="1.1">
<g id="surface1">
<path style=" stroke:none;fill-rule:nonzero;fill:rgb(0%,0%,0%);fill-opacity:1;" d="M 126.1875 47.339844 C 126.328125 45.402344 126.613281 43.75 128.574219 43.855469 C 130.152344 43.9375 130.800781 45.492188 130.769531 46.8125 C 130.652344 51.746094 132.265625 55.964844 134.917969 60.09375 C 136.90625 63.195312 135.144531 65.433594 131.679688 66.453125 C 132.8125 67.214844 134.261719 66.652344 135.058594 68.074219 C 132.199219 75.164062 134.332031 82.5625 134.992188 89.816406 C 135.824219 98.949219 136.863281 108.121094 139.15625 117.066406 C 139.496094 118.378906 139.570312 120.136719 140.859375 120.507812 C 145.5625 121.847656 144.425781 124.257812 142.402344 127.070312 C 142.097656 127.496094 141.945312 128.277344 142.109375 128.757812 C 144.261719 135.082031 146.457031 141.394531 148.71875 147.679688 C 149.105469 148.746094 150.289062 148.949219 151.277344 149.273438 C 152.492188 149.667969 153.734375 150.414062 153.269531 151.769531 C 151.320312 157.484375 155.648438 160.875 158.003906 164.945312 C 159.3125 167.207031 161.121094 169.179688 163.109375 171.820312 C 157.808594 173.765625 152.769531 174.328125 147.648438 174.265625 C 145.601562 174.242188 145.347656 172.234375 144.597656 170.839844 C 138.273438 159.050781 123.636719 157.566406 115.449219 167.878906 C 112.238281 171.921875 112.867188 174.074219 117.691406 175.707031 C 132.773438 180.824219 148.003906 180.488281 163.25 176.710938 C 184.582031 171.425781 201.355469 159.359375 214.300781 141.710938 C 214.953125 140.820312 215.253906 139.445312 216.742188 139.386719 C 218.667969 146.84375 206.992188 165.347656 193.378906 176.277344 C 181.207031 186.046875 167.261719 191.28125 151.160156 192.160156 C 186.09375 199.667969 221.113281 176.664062 230.882812 144.925781 C 231.710938 142.242188 232.308594 139.464844 232.765625 136.6875 C 233.183594 134.164062 234.003906 132.210938 236.976562 132.941406 C 240.078125 133.703125 238.910156 136.195312 238.527344 138.070312 C 235.007812 155.25 226.859375 169.804688 213.382812 181.085938 C 175.011719 213.210938 120.765625 201.195312 97.59375 162.246094 C 78.277344 129.769531 85.238281 89.023438 113.957031 64.5625 C 114.722656 63.910156 115.398438 63.019531 116.808594 63.066406 C 117.664062 66.679688 116.917969 69.476562 114.078125 72.332031 C 94.78125 91.726562 88.71875 115.007812 94.757812 141.527344 C 96.128906 147.554688 98.632812 153.226562 102.019531 158.941406 C 104.273438 156.839844 106.261719 155.492188 104.628906 152.597656 C 104.074219 151.613281 104.113281 150.238281 105.203125 149.851562 C 110.707031 147.890625 110.554688 142.515625 112.300781 138.320312 C 113.15625 136.273438 113.652344 134.074219 114.359375 131.960938 C 115.125 129.683594 115.847656 127.582031 113.917969 125.324219 C 112.640625 123.832031 112.511719 121.84375 115.078125 121.210938 C 117.058594 120.722656 117.613281 119.253906 117.945312 117.640625 C 120.8125 103.828125 123.21875 89.949219 123.488281 75.789062 C 123.527344 73.730469 123.839844 71.613281 122.796875 69.660156 C 121.714844 67.625 123.257812 67.152344 124.757812 66.628906 C 120.4375 64.964844 120.925781 61.65625 122.753906 59.046875 C 125.222656 55.519531 125.632812 51.667969 126.1875 47.339844 M 121.207031 147.707031 C 126.128906 150.578125 131.179688 148.546875 136.625 148.757812 C 135.097656 142.753906 133.765625 137.464844 133.265625 132.019531 C 132.996094 129.066406 130.695312 129.695312 128.886719 129.679688 C 126.875 129.664062 124.644531 129.261719 124.113281 132.28125 C 123.242188 137.222656 122.199219 142.132812 121.207031 147.707031 M 129.019531 101.917969 C 129.019531 101.0625 129.019531 100.207031 129.019531 99.351562 C 128.480469 106.511719 126.039062 113.492188 126.574219 120.730469 C 130.539062 121.621094 131.890625 120.644531 131.050781 116.683594 C 130.070312 112.054688 129.675781 107.304688 129.019531 101.917969 Z M 129.019531 101.917969 "/>
<path style=" stroke:none;fill-rule:nonzero;fill:rgb(0%,0%,0%);fill-opacity:1;" d="M 261.121094 96.445312 C 254.523438 102.796875 246.796875 106.949219 239.175781 111.480469 C 240.109375 115.488281 242.140625 118.757812 243.898438 122.160156 C 244.792969 123.882812 246.648438 125.65625 244.636719 127.777344 C 242.789062 129.722656 240.542969 129.988281 238.089844 129.113281 C 232.785156 127.21875 227.3125 125.695312 222.214844 123.347656 C 214.4375 119.765625 208.078125 123.894531 201.648438 126.753906 C 196.265625 129.148438 191.382812 132.675781 186.246094 135.648438 C 184.96875 136.386719 183.617188 137.078125 182.210938 137.496094 C 180.660156 137.957031 178.78125 138.332031 177.628906 136.914062 C 176.453125 135.464844 177.976562 134.179688 178.605469 132.90625 C 178.984375 132.144531 179.46875 131.433594 180.179688 130.238281 C 173.902344 130.652344 168.207031 129.976562 162.550781 128.996094 C 160.351562 128.617188 157.941406 128.234375 158.660156 124.894531 C 158.984375 123.378906 157.601562 122.878906 156.671875 122.253906 C 154.085938 120.519531 151.390625 118.945312 148.816406 117.191406 C 147.289062 116.148438 144.941406 115.21875 145.910156 112.839844 C 146.945312 110.292969 149.421875 111.140625 151.394531 111.53125 C 155.605469 112.367188 159.835938 113.179688 163.953125 114.371094 C 167.027344 115.257812 169.441406 114.554688 171.734375 112.558594 C 171.839844 110.851562 170.40625 110.351562 169.421875 109.570312 C 164.066406 105.335938 158.710938 101.101562 153.292969 96.945312 C 150.710938 94.960938 151.058594 93.40625 153.734375 91.988281 C 157.015625 90.25 160.167969 89.644531 163.867188 91.390625 C 171.371094 94.929688 179.097656 97.996094 186.707031 101.316406 C 189.472656 102.523438 192.03125 102.476562 194.792969 101.09375 C 207.648438 94.636719 220.699219 88.566406 233.414062 81.84375 C 243.652344 76.433594 252.472656 79.8125 261.488281 86.179688 C 265.023438 88.679688 264.699219 91.695312 261.121094 96.445312 M 210.179688 117.632812 C 220.273438 112.980469 230.417969 108.429688 240.4375 103.625 C 245.519531 101.191406 250.339844 98.222656 254.683594 94.578125 C 256.378906 93.15625 258.429688 91.328125 257.394531 89 C 256.253906 86.453125 253.488281 86.660156 251.101562 87.226562 C 249.234375 87.667969 247.414062 88.335938 245.609375 88.996094 C 240.789062 90.765625 240.3125 90.421875 240.875 85.015625 C 238.40625 86.015625 236.035156 86.820312 233.800781 87.902344 C 215.667969 96.695312 197.546875 105.515625 179.460938 114.402344 C 176.410156 115.902344 173.445312 117.636719 170.632812 119.539062 C 168.871094 120.734375 167.902344 122.539062 170.339844 124.167969 C 173.605469 126.355469 184.769531 124.523438 187.179688 121.386719 C 190.1875 117.46875 193.332031 113.800781 198.109375 111.886719 C 205.117188 109.082031 207.097656 110.019531 208.914062 117.269531 C 208.964844 117.464844 209.375 117.570312 210.179688 117.632812 Z M 210.179688 117.632812 "/>
<path style=" stroke:none;fill-rule:nonzero;fill:rgb(0%,0%,0%);fill-opacity:1;" d="M 156.101562 52.847656 C 150.507812 53.359375 145.390625 54.191406 140.480469 55.984375 C 138.496094 56.707031 136.773438 57.109375 135.808594 54.488281 C 134.703125 51.488281 137.054688 51.296875 138.773438 50.710938 C 168.175781 40.707031 202.757812 50.457031 222.730469 74.351562 C 222.824219 74.464844 222.957031 74.566406 223.003906 74.699219 C 223.675781 76.503906 227.136719 77.851562 224.335938 80.210938 C 221.859375 82.300781 220.0625 80.492188 218.484375 78.445312 C 214.089844 72.746094 208.753906 68.070312 202.765625 64.097656 C 188.695312 54.769531 173.132812 51.652344 156.101562 52.847656 Z M 156.101562 52.847656 "/>
<path style=" stroke:none;fill-rule:nonzero;fill:rgb(0%,0%,0%);fill-opacity:1;" d="M 228.472656 98.769531 C 226.53125 99.578125 225.203125 99.230469 224.539062 97.550781 C 224.101562 96.441406 224.675781 95.503906 225.65625 94.945312 C 226.890625 94.242188 228.269531 94.03125 229.316406 95.160156 C 230.457031 96.386719 229.949219 97.589844 228.472656 98.769531 Z M 228.472656 98.769531 "/>
<path style=" stroke:none;fill-rule:nonzero;fill:rgb(0%,0%,0%);fill-opacity:1;" d="M 218.558594 102.558594 C 216.671875 100.796875 217.121094 99.449219 218.957031 98.605469 C 220.21875 98.027344 221.441406 98.699219 221.703125 99.984375 C 222.144531 102.128906 220.851562 102.878906 218.558594 102.558594 Z M 218.558594 102.558594 "/>
<path style=" stroke:none;fill-rule:nonzero;fill:rgb(0%,0%,0%);fill-opacity:1;" d="M 215.433594 103.582031 C 214.332031 105.613281 212.972656 106.203125 211.417969 104.65625 C 210.367188 103.613281 210.710938 102.378906 211.875 101.632812 C 213.773438 100.421875 214.902344 101.320312 215.433594 103.582031 Z M 215.433594 103.582031 "/>
</g>
</svg>
