<svg width="240" height="240" viewBox="0 0 240 240" xmlns="http://www.w3.org/2000/svg" fill="none">
  <rect width="240" height="240" rx="16" fill="#F3F4F6"></rect>
  <path d="M120 50c-22 0-40 18-40 40s18 40 40 40 40-18 40-40-18-40-40-40zm0 68c-15.5 0-28-12.5-28-28s12.5-28 28-28 28 12.5 28 28-12.5 28-28 28z" fill="#CBD5E1"></path>
  <path d="M72 160c0-13.3 25.6-24 48-24s48 10.7 48 24v8H72v-8z" fill="#E5E7EB"></path>
  <path d="M82 184h76c1.1 0 2 .9 2 2v2c0 1.1-.9 2-2 2H82c-1.1 0-2-.9-2-2v-2c0-1.1.9-2 2-2z" fill="#94A3B8"></path>
  <text x="50%" y="220" text-anchor="middle" fill="#64748B" font-size="14" font-family="sans-serif">
    No advisors found
  </text>
</svg>
